<?xml version="1.0" standalone="no"?><svg xmlns="http://www.w3.org/2000/svg" viewBox="0 0 1440 320"><path fill="#f3f4f5" fill-opacity="0.8" d="M0,64L26.7,80C53.3,96,107,128,160,128C213.3,128,267,96,320,112C373.3,128,427,192,480,197.3C533.3,203,587,149,640,149.3C693.3,149,747,203,800,224C853.3,245,907,235,960,202.7C1013.3,171,1067,117,1120,128C1173.3,139,1227,213,1280,234.7C1333.3,256,1387,224,1413,208L1440,192L1440,0L1413.3,0C1386.7,0,1333,0,1280,0C1226.7,0,1173,0,1120,0C1066.7,0,1013,0,960,0C906.7,0,853,0,800,0C746.7,0,693,0,640,0C586.7,0,533,0,480,0C426.7,0,373,0,320,0C266.7,0,213,0,160,0C106.7,0,53,0,27,0L0,0Z"></path></svg>